<!-- icon666.com - MILLIONS OF FREE VECTOR ICONS --><svg xmlns="http://www.w3.org/2000/svg" viewBox="0 0 24 24"><g id="Layer_2" data-name="Layer 2"><path d="M12,23.5A11.5,11.5,0,1,1,23.5,12,11.5134,11.5134,0,0,1,12,23.5Zm0-22A10.5,10.5,0,1,0,22.5,12,10.5115,10.5115,0,0,0,12,1.5Z"></path></g><g id="Layer_3" data-name="Layer 3"><path d="M8,17h5a2.4957,2.4957,0,0,0,2.4-1.8392l1.1253.3753a1.5087,1.5087,0,0,0,.4785.0782A1.5044,1.5044,0,0,0,18.5,14.1123V9.8877a1.5011,1.5011,0,0,0-1.9746-1.4238L15.4,8.8392A2.4957,2.4957,0,0,0,13,7H8A2.5023,2.5023,0,0,0,5.5,9.5v5A2.5023,2.5023,0,0,0,8,17Zm8.8418-7.5869a.4908.4908,0,0,1,.45.0683.4969.4969,0,0,1,.208.4063v4.2246a.5.5,0,0,1-.6582.4746L15.5,14.14V9.86ZM6.5,9.5A1.5017,1.5017,0,0,1,8,8h5a1.5017,1.5017,0,0,1,1.5,1.5v5A1.5017,1.5017,0,0,1,13,16H8a1.5017,1.5017,0,0,1-1.5-1.5Z"></path></g></svg>