<!-- icon666.com - MILLIONS OF FREE VECTOR ICONS --><svg version="1.1" id="Layer_1" xmlns="http://www.w3.org/2000/svg" xmlns:xlink="http://www.w3.org/1999/xlink" x="0px" y="0px" viewBox="0 0 512 512" style="enable-background:new 0 0 512 512;" xml:space="preserve"><path style="fill:#C6C5CB;" d="M454.588,388.415c0.571-29.228-18.457-58.587-57.064-80.876 c-75.825-43.778-198.378-43.777-273.71,0.001c-37.545,21.819-56.274,50.396-56.233,78.995c0-0.092-0.005-0.185-0.005-0.277 l-0.169,13.108c-0.082,28.875,18.975,57.795,57.131,79.824c75.778,43.751,198.329,43.751,273.661-0.028 c37.43-21.752,56.163-50.221,56.245-78.729l0.169-13.109C454.612,387.689,454.595,388.051,454.588,388.415z"></path><path style="fill:#ACABB1;" d="M454.614,387.325l-0.17,13.109c-0.08,28.507-18.815,56.977-56.245,78.728 c-75.332,43.778-197.883,43.778-273.661,0.028c-38.156-22.03-57.213-50.949-57.131-79.824l0.169-13.108 c-0.082,28.875,18.975,57.794,57.132,79.824c75.778,43.75,198.329,43.75,273.661-0.028 C435.8,444.302,454.533,415.833,454.614,387.325z"></path><path style="fill:#C6C5CB;" d="M397.524,307.539c75.778,43.75,76.177,114.738,0.845,158.515s-197.882,43.778-273.661,0.028 c-75.825-43.778-76.225-114.764-0.893-158.541S321.699,263.761,397.524,307.539z"></path><path style="fill:#D8D8DA;" d="M471.88,216.523c0,119.587-96.936,216.523-216.523,216.523c-22.966,0-45.084-3.568-65.849-10.198 c-4.128-1.312-8.216-2.748-12.235-4.32c-5.563-2.297-11.237-5.113-17.02-8.448C93.679,371.651,39.901,278.489,40.12,201.991 c0.014-5.919,0.355-11.579,0.998-16.937c0.014-0.054,0.014-0.11,0.027-0.164c0.629-4.388,1.394-8.722,2.297-13.001 c0.014-0.069,0.027-0.15,0.054-0.218C64.139,73.601,151.15,0,255.358,0C374.945,0,471.88,96.936,471.88,216.523z"></path><g><path style="fill:#1D1D1F;" d="M161.2,146.588c-60.503-34.931-109.711-6.889-109.908,62.633 c-0.196,69.522,48.692,154.2,109.194,189.131s109.711,6.889,109.908-62.633S221.703,181.519,161.2,146.588z"></path><path style="fill:#1D1D1F;" d="M281.167,341.167c-0.191,64.892-39.179,96.936-91.659,81.68c-4.005-1.162-8.079-2.598-12.235-4.32 c-5.563-2.297-11.237-5.113-17.02-8.448C93.679,371.651,39.901,278.489,40.12,201.991c0.014-5.919,0.355-11.579,0.998-16.937 c0.014-0.054,0.014-0.11,0.027-0.164c0.546-4.538,1.312-8.872,2.297-13.001c0.014-0.069,0.027-0.15,0.054-0.218 c12.809-53.655,60.627-71.441,117.536-38.591C227.607,171.52,281.385,264.683,281.167,341.167z"></path></g><path style="fill:#3E3D43;" d="M161.107,179.375c-44.744-25.833-81.135-5.095-81.281,46.32s36.009,114.037,80.753,139.87 s81.135,5.095,81.281-46.32C242.006,267.831,205.851,205.208,161.107,179.375z"></path><path style="fill:#2E2E30;" d="M161.035,204.818c-32.516-18.773-58.961-3.702-59.068,33.661 c-0.106,37.363,26.168,82.871,58.683,101.644c32.516,18.773,58.961,3.702,59.068-33.661 C219.824,269.099,193.55,223.59,161.035,204.818z"></path><path style="fill:#010101;" d="M160.914,247.184c-12.153-7.017-22.038-1.383-22.078,12.582c-0.04,13.965,9.781,30.975,21.935,37.992 c12.153,7.017,22.038,1.385,22.078-12.582C182.889,271.21,173.068,254.2,160.914,247.184z"></path><path style="fill:#C6C5CB;" d="M294.869,33.275c21.948,12.673,22.064,33.233,0.245,45.913c-21.82,12.68-57.317,12.68-79.265,0.008 c-21.963-12.68-22.079-33.241-0.259-45.921C237.41,20.596,272.907,20.595,294.869,33.275z"></path></svg>